<svg xmlns="http://www.w3.org/2000/svg" width="512" height="512" viewBox="0 0 512 512">
  <rect width="512" height="512" rx="80" fill="#5E81AC"/>
  <g transform="translate(136,136) scale(2.4)" fill="none" stroke="#ECEFF4" stroke-linecap="round">
    <circle cx="50" cy="50" r="30" stroke-width="3.5"/>
    <circle cx="50" cy="50" r="20" stroke-width="1" stroke-dasharray="3 5" opacity="0.4"/>
    <circle cx="50" cy="50" r="10" stroke-width="0.8" stroke-dasharray="2 3" opacity="0.3"/>
    <circle cx="50" cy="20" r="3" fill="#ECEFF4" stroke="none"/>
    <circle cx="80" cy="50" r="3" fill="#ECEFF4" stroke="none"/>
    <circle cx="50" cy="80" r="3" fill="#ECEFF4" stroke="none"/>
    <circle cx="20" cy="50" r="3" fill="#ECEFF4" stroke="none"/>
    <circle cx="71.21" cy="28.79" r="1.8" fill="#ECEFF4" stroke="none" opacity="0.5"/>
    <circle cx="71.21" cy="71.21" r="1.8" fill="#ECEFF4" stroke="none" opacity="0.5"/>
    <circle cx="28.79" cy="71.21" r="1.8" fill="#ECEFF4" stroke="none" opacity="0.5"/>
    <circle cx="28.79" cy="28.79" r="1.8" fill="#ECEFF4" stroke="none" opacity="0.5"/>
    <polygon points="50,42 58,50 50,58 42,50" fill="#ECEFF4" stroke="none"/>
    <path d="M 50 20 A 30 30 0 0 1 80 50" stroke-width="2" opacity="0.5"/>
    <circle cx="50" cy="50" r="1.5" fill="#ECEFF4" stroke="none"/>
  </g>
</svg>
